<svg width="24" height="24" viewBox="0 0 24 24" fill="none" xmlns="http://www.w3.org/2000/svg">
<path d="M14.4156 1.46387C15.8269 1.90065 17.0986 2.70084 18.1031 3.78418C19.1901 4.94388 19.9197 6.39233 20.2046 7.95606V8.01075C20.2457 8.24707 20.275 8.47168 20.2925 8.68262C20.314 8.92871 20.3257 9.17676 20.3257 9.42481V11.4033C20.3257 11.9522 20.3257 12.5107 20.3648 13.0713C20.4162 14.077 20.7068 15.0559 21.2125 15.9268C21.7814 16.8186 22.5412 17.5731 23.4371 18.1357C23.6912 18.3019 23.8753 18.5556 23.9547 18.8486C24.0141 19.0774 24.0086 19.3181 23.939 19.5439C23.8704 19.7696 23.7414 19.9723 23.566 20.1299C23.3366 20.331 23.0409 20.4402 22.7359 20.4365H16.0679V20.4522C15.2593 25.1787 8.72223 25.165 7.93317 20.4365H1.25934C0.937713 20.4438 0.625931 20.3254 0.390196 20.1064C0.222511 19.9462 0.101164 19.7437 0.0389461 19.5203C-0.0232715 19.2968 -0.0240541 19.0608 0.0366808 18.8369C0.120971 18.5345 0.317189 18.2754 0.585509 18.1123C1.69098 17.3643 2.46442 16.5498 2.9527 15.6201C3.44098 14.6904 3.66559 13.5811 3.66559 12.2451V9.42481C3.66559 9.19824 3.67731 8.95215 3.70074 8.68848C3.72418 8.42481 3.75738 8.19629 3.80035 7.9541C4.0815 6.43712 4.77612 5.02725 5.80762 3.87995C6.83912 2.73266 8.16742 1.89251 9.64606 1.45215C10.5464 -0.477538 13.5152 -0.481444 14.4156 1.46387ZM17.1304 4.69238C16.2177 3.70671 15.044 3.00031 13.7457 2.65528C13.6354 2.62497 13.5347 2.56685 13.4533 2.48649C13.3719 2.40612 13.3125 2.3062 13.2808 2.19629C12.9468 1.04981 11.1324 1.02442 10.7964 2.18653C10.7637 2.29977 10.7017 2.40238 10.6167 2.484C10.5316 2.56562 10.4266 2.62335 10.3121 2.65137C9.00626 2.98084 7.82211 3.6774 6.8997 4.65865C5.97728 5.63991 5.35519 6.86481 5.10699 8.18848C5.07054 8.39421 5.04319 8.59929 5.02496 8.80371C5.00738 8.99903 4.99957 9.19434 4.99957 9.42481V12.2451C4.99957 13.79 4.73004 15.0889 4.13043 16.2354C3.55621 17.333 2.69293 18.2647 1.4859 19.1104H22.5132C21.5325 18.4585 20.7022 17.6048 20.0777 16.6064C19.4649 15.5589 19.1101 14.3807 19.0425 13.1689C18.9996 12.6064 19.0015 11.9971 19.0035 11.4111V9.42481C19.0035 9.20996 19.0035 9.00098 18.9781 8.7959C18.9527 8.59082 18.9371 8.40528 18.9078 8.23926L18.8961 8.18653C18.6567 6.87698 18.0466 5.66361 17.1382 4.69043L17.1304 4.69238Z" fill="#B8B9BC"/>
</svg>
