<svg width="16" height="16" viewBox="0 0 16 16" fill="none" xmlns="http://www.w3.org/2000/svg">
<path d="M9.68763 8.68941H15.0818C15.3348 8.68941 15.5645 8.79389 15.7305 8.96256C15.8966 9.13097 15.9999 9.36397 15.9999 9.6206V15.0685C15.9999 15.3249 15.8966 15.5582 15.7305 15.7263C15.5645 15.895 15.3348 15.9997 15.0818 15.9997H9.68763C9.43477 15.9997 9.20508 15.895 9.03893 15.7263C8.87292 15.5582 8.76966 15.3249 8.76966 15.0685V9.62074C8.76966 9.3641 8.87292 9.1311 9.03893 8.96269C9.20508 8.79389 9.43477 8.68941 9.68763 8.68941ZM0.918229 0H6.31224C6.5651 0 6.79492 0.104611 6.96107 0.273282C7.12721 0.441953 7.23034 0.674817 7.23034 0.931457V6.37926C7.23034 6.6359 7.12721 6.8689 6.96107 7.0373C6.79492 7.20584 6.5651 7.31059 6.31224 7.31059H0.918229C0.666406 7.31059 0.4375 7.20584 0.271224 7.0373L0.270313 7.03651L0.269401 7.0373C0.103125 6.86877 0 6.63577 0 6.37913V0.931457C0 0.674817 0.103125 0.441821 0.269401 0.273282C0.28151 0.260998 0.294271 0.249375 0.307161 0.238676C0.469662 0.0904776 0.684245 0 0.918229 0ZM6.26706 0.977026H0.963151V6.33343H6.26693V0.977026H6.26706ZM9.68763 0H15.0818C15.3348 0 15.5645 0.104611 15.7305 0.273282C15.8966 0.441821 15.9999 0.674817 15.9999 0.931457V6.37926C15.9999 6.6359 15.8966 6.8689 15.7305 7.0373C15.5645 7.20584 15.3348 7.31059 15.0818 7.31059H9.68763C9.43477 7.31059 9.20508 7.20584 9.03893 7.0373C8.87292 6.8689 8.76966 6.63577 8.76966 6.37926V0.931457C8.76966 0.674817 8.87292 0.441821 9.03893 0.273282C9.20508 0.104611 9.43477 0 9.68763 0ZM15.0367 0.977026H9.73281V6.33343H15.0367V0.977026ZM0.918229 8.68941H6.31224C6.5651 8.68941 6.79492 8.79389 6.96107 8.96256C7.12721 9.13097 7.23034 9.36397 7.23034 9.6206V15.0685C7.23034 15.3249 7.12721 15.5582 6.96107 15.7263C6.79492 15.895 6.5651 15.9997 6.31224 15.9997H0.918229C0.666406 15.9997 0.4375 15.895 0.271224 15.7263L0.270313 15.7255L0.269401 15.7263C0.103125 15.5583 0 15.325 0 15.0687V9.62074C0 9.3641 0.103125 9.1311 0.269401 8.96269C0.28151 8.95028 0.294271 8.93865 0.307292 8.92782C0.469661 8.77976 0.684245 8.68941 0.918229 8.68941ZM6.26706 9.66644H0.963151V15.0228H6.26693V9.66644H6.26706ZM15.0367 9.66644H9.73281V15.0228H15.0367V9.66644Z" fill="#B8B9BC"/>
</svg>
