<svg width="19" height="20" viewBox="0 0 19 20" fill="none" xmlns="http://www.w3.org/2000/svg">
<path d="M12.7114 2.1985L12.7167 2.20062H12.718C13.1914 2.393 13.6456 2.62429 14.0755 2.88845C14.5021 3.15082 14.909 3.45079 15.2908 3.78218C17.2427 5.4762 18.4777 7.97557 18.4777 10.7612V10.7638H18.4767C18.4757 13.314 17.4414 15.6241 15.7695 17.295C14.1002 18.9643 11.7926 19.9976 9.24438 19.9989V19.9999H9.23901H9.23657V19.9989C6.68674 19.9983 4.37731 18.9643 2.70608 17.2927L2.70526 17.2934C1.03598 15.6239 0.00244143 13.3159 0.000976571 10.7664H0V10.7611V10.7547H0.000976571C0.00162762 9.632 0.202638 8.55565 0.569341 7.56215C0.71843 7.15753 0.896329 6.76511 1.09913 6.38864C2.13934 4.45617 3.84915 2.93598 5.91737 2.13877L6.34608 1.97324V2.43174V5.50387V5.68112L6.19195 5.77373L6.19081 5.77438L6.1895 5.77519L6.18836 5.77584C5.95431 5.91924 5.73117 6.07939 5.52088 6.25192L5.52153 6.25257C5.30929 6.42819 5.10942 6.61749 4.92598 6.8185H4.92484C3.97578 7.8561 3.39602 9.24055 3.39602 10.7606V10.7632H3.39488C3.39521 12.3745 4.05049 13.8356 5.10828 14.8933L5.10763 14.8939C6.16428 15.9499 7.62343 16.6039 9.23347 16.6049V16.6039H9.23884H9.24129V16.6049C10.8538 16.6045 12.3147 15.9498 13.3712 14.8929C14.4277 13.8361 15.0815 12.377 15.0828 10.7661H15.0815V10.7607V10.7567H15.0828C15.0825 9.73209 14.817 8.76757 14.353 7.93081C14.2796 7.79881 14.1979 7.66486 14.1095 7.53156C13.6669 6.86667 13.0919 6.29603 12.4234 5.86064L12.2794 5.76673V5.59713V2.4905V2.02549L12.7114 2.1985ZM7.73265 -0.000244141H10.7449H11.0603V0.315025V8.44807V8.76334H10.7449H7.73265H7.41738V8.44807V0.315025V-0.000244141H7.73265Z" fill="#DDDDDD"/>
</svg>
