<svg width="20" height="20" viewBox="0 0 20 20" fill="none" xmlns="http://www.w3.org/2000/svg">
<path fill-rule="evenodd" clip-rule="evenodd" d="M11.9596 2.57788C12.6123 2.77377 13.2358 3.05623 13.8135 3.41772L14.8112 2.41512C15.043 2.18453 15.3566 2.05509 15.6836 2.05509C16.0105 2.05509 16.3242 2.18453 16.556 2.41512L17.5781 3.44214C17.8087 3.67393 17.9382 3.98758 17.9382 4.31453C17.9382 4.64149 17.8087 4.95514 17.5781 5.18693L16.5039 6.26115C16.8135 6.82193 17.0509 7.41968 17.2103 8.04012H18.7598C18.9225 8.03969 19.0837 8.07137 19.2341 8.13334C19.3846 8.19532 19.5213 8.28636 19.6365 8.40127C19.7518 8.51618 19.8432 8.65269 19.9055 8.80298C19.9679 8.95327 20 9.11438 20 9.2771V10.7257C19.9991 11.0526 19.8689 11.3659 19.6377 11.5971C19.4065 11.8283 19.0932 11.9585 18.7663 11.9594H17.2021C17.0393 12.5732 16.8003 13.1643 16.4909 13.7188L17.5781 14.811C17.8087 15.0427 17.9382 15.3564 17.9382 15.6834C17.9382 16.0103 17.8087 16.324 17.5781 16.5557L16.5576 17.5779C16.3256 17.8086 16.0116 17.9381 15.6844 17.9381C15.3572 17.9381 15.0433 17.8086 14.8112 17.5779L13.7793 16.5444C13.2101 16.8936 12.5979 17.1672 11.958 17.3582V18.7563C11.9571 19.0832 11.8269 19.3965 11.5957 19.6277C11.3645 19.8589 11.0512 19.9891 10.7243 19.99H9.27734C8.9504 19.9891 8.6371 19.8589 8.40592 19.6277C8.17474 19.3965 8.04448 19.0832 8.04362 18.7563V17.4932C7.34132 17.3344 6.66472 17.078 6.03353 16.7315L5.18717 17.5779C4.95497 17.8077 4.64147 17.9366 4.31478 17.9366C3.98809 17.9366 3.67459 17.8077 3.44238 17.5779L2.41536 16.5509C2.18517 16.3189 2.056 16.0053 2.056 15.6785C2.056 15.3516 2.18517 15.0381 2.41536 14.8061L3.18359 14.0378C2.7812 13.3934 2.47626 12.693 2.27865 11.9594H1.23372C0.906784 11.9585 0.593481 11.8283 0.362299 11.5971C0.131116 11.3659 0.000859242 11.0526 0 10.7257L0 9.2771C-1.13401e-06 8.9496 0.129876 8.63546 0.361151 8.40357C0.592426 8.17169 0.906221 8.04098 1.23372 8.04012H2.26725C2.45933 7.29723 2.76162 6.58731 3.16406 5.934L2.41536 5.18693C2.18557 4.95472 2.05667 4.64123 2.05667 4.31453C2.05667 3.98784 2.18557 3.67435 2.41536 3.44214L3.44238 2.41512C3.67417 2.18453 3.98783 2.05509 4.31478 2.05509C4.64173 2.05509 4.95538 2.18453 5.18717 2.41512L6.00098 3.22892C6.63916 2.86923 7.32609 2.60388 8.04037 2.44116V1.23348C8.04123 0.905977 8.17193 0.592182 8.40382 0.360907C8.6357 0.129632 8.94984 -0.000245275 9.27734 -0.000244141L10.7259 -0.000244141C11.0529 0.000615101 11.3662 0.130872 11.5973 0.362054C11.8285 0.593237 11.9588 0.90654 11.9596 1.23348V2.57788ZM9.74284 5.96981C10.5348 5.96981 11.309 6.20467 11.9675 6.6447C12.6259 7.08473 13.1391 7.71015 13.4421 8.44186C13.7451 9.17358 13.8243 9.97871 13.6697 10.7554C13.5151 11.5322 13.1336 12.2456 12.5735 12.8055C12.0133 13.3654 11.2998 13.7466 10.523 13.9009C9.74618 14.0552 8.94107 13.9757 8.20948 13.6724C7.47789 13.3691 6.85268 12.8556 6.41292 12.197C5.97316 11.5383 5.73861 10.7641 5.73893 9.97209C5.73893 9.44636 5.84251 8.92579 6.04374 8.44011C6.24498 7.95442 6.53993 7.51314 6.91175 7.14147C7.28357 6.76981 7.72497 6.47503 8.21073 6.274C8.6965 6.07296 9.21712 5.96959 9.74284 5.96981Z" fill="#DDDDDD"/>
</svg>
